<mxfile host="app.diagrams.net" modified="2023-05-31T02:15:32.367Z" agent="Mozilla/5.0 (Windows NT 10.0; Win64; x64) AppleWebKit/537.36 (KHTML, like Gecko) Chrome/113.0.0.0 Safari/537.36" version="21.3.3" etag="XjCsZTmmQSJngOeg8b1n" type="github">
  <diagram name="페이지-1" id="3UbikNSeKCQyz51uU4FQ">
    <mxGraphModel>
      <root>
        <mxCell id="0" />
        <mxCell id="1" parent="0" />
      </root>
    </mxGraphModel>
  </diagram>
</mxfile>
